<svg aria-hidden="true" focusable="false" id="lv-SVG" height="100%" viewBox="0 0 186 50" role="img" class="currentColor">
<path d="M95.466,17.457h-2.673l-3.741,9.024l-3.741-9.024h-2.672l6.126,14.799l0.288,0.288l0.288-0.288
		L95.466,17.457z M72.896,32.01c0.575-0.26,1.075-0.611,1.5-1.058c0.425-0.445,0.757-0.951,0.998-1.521
		c0.239-0.57,0.36-1.162,0.36-1.778c0-0.617-0.121-1.148-0.36-1.594c-0.24-0.444-0.528-0.818-0.864-1.119
		c-0.335-0.302-0.677-0.549-1.028-0.74c-0.349-0.193-0.633-0.35-0.853-0.473c-0.205-0.109-0.377-0.205-0.514-0.288
		c-0.137-0.082-0.264-0.158-0.38-0.226c-0.116-0.068-0.233-0.14-0.349-0.216c-0.117-0.075-0.251-0.161-0.401-0.256
		c-0.274-0.179-0.486-0.38-0.637-0.607s-0.212-0.503-0.184-0.833c0.027-0.438,0.209-0.812,0.544-1.119
		c0.336-0.309,0.716-0.463,1.141-0.463c0.356,0,0.684,0.093,0.986,0.277c0.302,0.186,0.528,0.435,0.679,0.751h0.452l1.438-1.44
		c-0.384-0.548-0.891-0.993-1.521-1.335c-0.631-0.343-1.308-0.514-2.035-0.514c-0.699,0-1.285,0.102-1.757,0.307
		c-0.473,0.206-0.873,0.459-1.203,0.761c-0.425,0.398-0.761,0.861-1.007,1.387c-0.247,0.528-0.37,1.079-0.37,1.655
		c0,0.383,0.048,0.749,0.144,1.1c0.095,0.349,0.226,0.668,0.39,0.956c0.165,0.288,0.347,0.537,0.545,0.749
		c0.198,0.215,0.401,0.38,0.607,0.506c0.191,0.122,0.442,0.269,0.751,0.442c0.307,0.169,0.599,0.332,0.873,0.483
		c0.328,0.179,0.665,0.363,1.007,0.554c0.247,0.124,0.449,0.271,0.607,0.442c0.157,0.172,0.274,0.351,0.349,0.536
		s0.116,0.369,0.123,0.554c0.007,0.186-0.003,0.361-0.03,0.524c-0.042,0.206-0.124,0.401-0.247,0.586
		c-0.123,0.186-0.277,0.35-0.463,0.494c-0.184,0.144-0.404,0.249-0.658,0.318c-0.253,0.07-0.531,0.081-0.832,0.042
		c-0.302-0.042-0.593-0.152-0.873-0.329c-0.282-0.177-0.498-0.321-0.648-0.432l-0.637-0.535l-1.85,1.892
		c0.438,0.507,0.873,0.898,1.305,1.172c0.433,0.274,0.977,0.486,1.634,0.637c0.233,0.055,0.484,0.093,0.751,0.114
		s0.49,0.03,0.668,0.03C71.704,32.401,72.321,32.271,72.896,32.01 M115.199,17.457h-2.179l-0.288,0.288v14.512h2.178l0.288-0.288
		V17.457z M107.799,17.745l-0.288-0.288h-1.891l-0.288,0.288v9.578c0,0.343-0.066,0.661-0.196,0.956
		c-0.13,0.295-0.309,0.556-0.534,0.782c-0.226,0.225-0.487,0.405-0.783,0.534c-0.295,0.131-0.611,0.196-0.955,0.196
		c-0.342,0-0.661-0.065-0.956-0.196c-0.295-0.129-0.556-0.309-0.781-0.534c-0.226-0.225-0.405-0.487-0.535-0.782
		c-0.13-0.295-0.195-0.612-0.195-0.956v-9.578l-0.288-0.288h-1.891l-0.288,0.288v9.578c0,0.686,0.129,1.327,0.39,1.922
		c0.261,0.595,0.612,1.117,1.059,1.563c0.445,0.447,0.966,0.798,1.563,1.058c0.595,0.262,1.235,0.391,1.921,0.391
		s1.326-0.129,1.921-0.391c0.597-0.26,1.118-0.611,1.564-1.058c0.445-0.445,0.798-0.966,1.059-1.563
		c0.26-0.596,0.39-1.237,0.39-1.922C107.799,27.323,107.799,17.745,107.799,17.745z M63.399,17.457h-2.179l-0.288,0.288v14.512
		h2.178l0.288-0.288V17.457z M56,17.745l-0.288-0.288h-1.891l-0.289,0.288v9.578c0,0.343-0.065,0.661-0.195,0.956
		c-0.13,0.295-0.309,0.556-0.535,0.782c-0.226,0.225-0.486,0.405-0.781,0.534c-0.295,0.131-0.614,0.196-0.956,0.196
		s-0.661-0.065-0.956-0.196c-0.295-0.129-0.554-0.309-0.781-0.534c-0.226-0.225-0.405-0.487-0.535-0.782
		c-0.13-0.295-0.195-0.612-0.195-0.956v-9.578l-0.288-0.288H46.42l-0.288,0.288v9.578c0,0.686,0.13,1.327,0.391,1.922
		c0.26,0.596,0.612,1.117,1.058,1.563c0.445,0.447,0.966,0.798,1.563,1.058c0.596,0.262,1.237,0.391,1.922,0.391
		s1.326-0.129,1.922-0.391c0.596-0.26,1.117-0.611,1.563-1.058c0.444-0.445,0.798-0.966,1.058-1.563
		C55.869,28.649,56,28.009,56,27.323V17.745z M142.875,29.4c-0.595-0.26-1.117-0.612-1.561-1.059
		c-0.445-0.444-0.798-0.965-1.059-1.561c-0.26-0.596-0.391-1.237-0.391-1.922s0.131-1.326,0.391-1.922
		c0.261-0.596,0.614-1.117,1.059-1.563c0.444-0.444,0.966-0.798,1.561-1.058c0.597-0.261,1.237-0.391,1.922-0.391
		s1.327,0.13,1.922,0.391c0.596,0.26,1.117,0.614,1.563,1.058c0.447,0.445,0.798,0.966,1.058,1.563
		c0.262,0.596,0.391,1.237,0.391,1.922s-0.129,1.327-0.391,1.922c-0.26,0.596-0.611,1.117-1.058,1.561
		c-0.445,0.447-0.966,0.799-1.563,1.059c-0.596,0.261-1.237,0.391-1.922,0.391S143.473,29.659,142.875,29.4 M141.91,18.043
		c-0.897,0.39-1.679,0.918-2.344,1.582c-0.665,0.665-1.191,1.447-1.582,2.343c-0.391,0.898-0.586,1.861-0.586,2.888
		c0,1.029,0.195,1.991,0.586,2.887c0.391,0.898,0.918,1.68,1.582,2.344c0.665,0.664,1.447,1.19,2.344,1.581s1.861,0.586,2.887,0.586
		s1.991-0.195,2.888-0.586c0.897-0.391,1.679-0.918,2.343-1.581c0.665-0.665,1.192-1.447,1.582-2.344
		c0.391-0.897,0.586-1.859,0.586-2.887c0-1.028-0.195-1.991-0.586-2.888c-0.39-0.897-0.918-1.679-1.582-2.343
		c-0.664-0.665-1.445-1.192-2.343-1.582c-0.898-0.391-1.861-0.586-2.888-0.586S142.808,17.652,141.91,18.043 M33.522,29.4
		c-0.596-0.26-1.117-0.612-1.563-1.059c-0.445-0.444-0.798-0.965-1.058-1.561c-0.261-0.596-0.391-1.237-0.391-1.922
		s0.13-1.326,0.391-1.922c0.26-0.596,0.612-1.117,1.058-1.563c0.445-0.444,0.966-0.798,1.563-1.058
		c0.596-0.261,1.237-0.391,1.922-0.391c0.684,0,1.326,0.13,1.922,0.391c0.596,0.26,1.116,0.614,1.561,1.058
		c0.445,0.445,0.798,0.966,1.059,1.563c0.26,0.596,0.391,1.237,0.391,1.922s-0.131,1.327-0.391,1.922
		c-0.261,0.596-0.614,1.117-1.059,1.561c-0.445,0.447-0.965,0.799-1.561,1.059c-0.596,0.261-1.238,0.391-1.922,0.391
		C34.759,29.791,34.118,29.659,33.522,29.4 M32.556,18.043c-0.898,0.39-1.679,0.918-2.343,1.582
		c-0.665,0.665-1.192,1.447-1.582,2.343c-0.391,0.898-0.586,1.861-0.586,2.888c0,1.029,0.195,1.991,0.586,2.887
		c0.39,0.898,0.918,1.68,1.582,2.344c0.665,0.664,1.445,1.19,2.343,1.581c0.898,0.391,1.861,0.586,2.888,0.586
		c1.028,0,1.991-0.195,2.887-0.586c0.898-0.391,1.679-0.918,2.344-1.581c0.664-0.665,1.191-1.447,1.582-2.344
		c0.391-0.897,0.586-1.859,0.586-2.887c0-1.028-0.195-1.991-0.586-2.888c-0.391-0.897-0.919-1.679-1.582-2.343
		c-0.666-0.665-1.447-1.192-2.344-1.582c-0.897-0.391-1.859-0.586-2.887-0.586C34.417,17.457,33.454,17.652,32.556,18.043
		 M21.466,17.457h-2.178L19,17.745v14.512h7.4v-2.466h-4.934V17.457z M135.754,17.457h-7.112l-0.288,0.288v2.178h2.467v12.333h2.466
		V19.924h2.179l0.288-0.288V17.457z M126.71,17.457h-7.112l-0.289,0.288v2.178h2.467v12.333h2.466V19.924h2.18l0.288-0.288V17.457z
		 M166.546,32.257H167V17.745l-0.288-0.288h-1.892l-0.289,0.288v9.003l-9.578-9.578l-0.288,0.288v14.512l0.288,0.288h1.891
		l0.288-0.288v-9.127L166.546,32.257z"></path>
</svg>